PathFileType	4	(X/Y/Z)	C:/Users/beibeiliu/ov580/test_trc/User2\sequence.44_training_dense_right.trc
DataRate	CameraRate	NumFrames	NumMarkers	Units	OrigDataRate	OrigDataStartFrame	OrigNumFrames
120	120	10	19	mm	120	1	75
Frame#	Time	ThumbCMC			ThumbMCP			ThumbIP			ThumbTip			IndexMCP			IndexPIP			IndexTip			MiddleMCP			MiddlePIP			MiddleTip			RingMCP			RingPIP			RingTip			PinkyMCP			PinkyPIP			PinkyTip			BackHand1			BackHand2			BackHand3	
		X0	Y0	Z0	X1	Y1	Z1	X2	Y2	Z2	X3	Y3	Z3	X4	Y4	Z4	X5	Y5	Z5	X6	Y6	Z6	X7	Y7	Z7	X8	Y8	Z8	X9	Y9	Z9	X10	Y10	Z10	X11	Y11	Z11	X12	Y12	Z12	X13	Y13	Z13	X14	Y14	Z14	X15	Y15	Z15	X16	Y16	Z16	X17	Y17	Z17	X18	Y18	Z18	
0	0	36.2909	30.4363	27.0386	3.78273	27.873	16.814	-24.3058	25.2816	-3.28115	-43.6151	20.766	-16.0314	23.5992	52.8405	-55.099	9.11548	51.822	-81.5339	-4.00129	54.4191	-100.746	54.0092	56.9125	-70.0871	43.5481	57.7266	-98.5816	40.4106	60.601	-130.307	79.9945	48.3606	-71.7101	79.7343	50.0449	-98.0841	81.1252	55.1421	-126.453	105.889	33.0759	-61.1692	115.903	31.0302	-84.3506	126.158	33.5725	-103.453	89.1923	50.2223	-15.6349	97.6359	52.7443	18.1587	60.1824	54.7289	10.5829	
1	0.00833333	31.949	32.1328	22.6462	7.12005	27.4037	15.2844	-23.9244	26.0358	-6.10543	-45.4208	20.2054	-13.4896	23.0171	52.5104	-55.7052	6.61546	53.3861	-80.4015	-2.79977	55.2167	-106.177	50.4838	57.1673	-68.7898	42.0607	58.84	-103.087	39.904	61.854	-132.861	77.0354	49.6489	-74.2138	83.7736	48.9527	-96.1753	79.3856	54.9969	-126.773	104.914	33.2002	-60.9007	116.759	31.6043	-85.6979	123.695	34.2206	-108.543	88.1601	50.1716	-16.034	96.851	52.2244	17.0719	57.9708	56.5765	7.21787	
2	0.0166667	32.3105	31.78	27.483	6.15186	28.0132	12.2485	-24.9837	26.1517	-5.41172	-43.5836	21.1836	-17.2048	22.8978	53.1651	-56.5925	7.09134	52.9976	-77.083	-1.51247	55.1383	-103.77	49.1878	58.0268	-74.2087	41.8973	58.9393	-103.028	40.0316	61.4951	-134.848	79.934	49.6515	-73.418	79.595	49.785	-96.2463	79.9586	53.8874	-126.323	105.604	35.3304	-62.2496	116.279	30.771	-83.5464	123.782	34.0224	-104.566	88.5454	51.269	-17.5656	98.7999	54.0743	13.4842	60.0282	57.4057	7.78728	
3	0.025	30.1514	32.8987	25.132	4.67896	28.2764	15.7592	-25.0892	26.7829	-6.94089	-46.1584	20.9912	-17.1052	21.3139	53.4699	-53.9276	5.10607	53.3939	-80.8923	-1.69225	55.5969	-105.468	53.4838	58.4705	-72.9606	45.492	59.1715	-104.928	42.7002	60.3531	-133.729	78.1365	51.6211	-74.6925	80.6638	51.6899	-100.006	78.3719	54.1405	-126.904	105.16	35.7689	-60.8946	114.336	31.5814	-81.7199	126.271	35.3898	-107.305	85.6556	53.8913	-16.5148	97.6196	52.421	16.5882	55.1538	57.4129	5.46957	
4	0.0333333	28.7235	33.9548	24.3145	5.31842	28.3231	14.1004	-24.8269	26.4398	-5.59352	-45.6351	20.6497	-18.6488	21.328	54.3322	-57.969	6.32051	53.8491	-77.8089	-1.04293	54.9128	-104.867	50.0224	58.6193	-68.4874	43.7834	58.5373	-104.336	40.4725	60.7211	-131.236	78.142	49.9934	-69.694	77.9734	51.4779	-100.369	78.882	55.083	-128.014	106.181	34.3779	-58.1069	116.174	32.9953	-85.5756	126.267	34.4927	-107.319	87.0359	52.7213	-13.4354	100.276	54.4322	16.2761	61.2119	56.8525	7.90169	
5	0.0416667	29.2435	33.5743	23.4096	7.17484	27.9976	12.8288	-21.1637	24.7205	-2.56553	-42.8181	20.3093	-15.9954	19.6426	53.9241	-54.777	9.4523	54.7064	-81.2995	-7.42967	56.7479	-104.308	52.859	59.0302	-68.8103	47.6764	59.548	-100.904	41.1537	60.8487	-129.121	77.2556	51.4214	-72.5602	81.7206	51.5161	-96.7875	77.2869	53.4769	-123.812	108.407	35.2247	-60.9205	113.492	33.1033	-82.0512	128.331	36.9556	-106.39	90.7127	52.604	-16.5754	97.0567	54.0455	14.7552	60.0709	57.6519	4.83548	
6	0.05	32.1395	33.6897	24.5088	4.78882	30.4369	17.1135	-26.0236	28.5346	-1.62362	-45.49	22.1995	-12.2872	20.85	56.023	-54.1746	4.5166	56.7959	-78.063	-2.16254	58.6008	-104.277	50.032	61.9033	-67.9929	45.337	61.8742	-99.3916	41.3573	63.2206	-130.368	81.4	52.9861	-71.9976	82.6509	52.7946	-96.1994	80.8454	55.6506	-122.841	105.159	36.9967	-58.2911	117.524	33.4131	-83.0086	127.778	38.3137	-106.322	88.1357	55.0508	-11.9758	95.7382	54.6469	18.417	58.3535	58.149	7.20983	
7	0.0583333	33.2227	34.3933	29.3806	5.63634	32.9619	17.2191	-23.7686	31.6573	-0.942976	-45.5354	27.9381	-13.0192	19.1488	59.5933	-52.6742	6.81246	59.8602	-80.1957	-5.46182	62.777	-104.627	52.0615	64.0571	-69.6301	45.4926	65.3673	-100.346	43.5563	67.9842	-134.198	81.8447	54.3845	-72.608	83.3589	55.5463	-97.3428	77.7149	60.0593	-122.033	105.349	38.7973	-57.3233	113.362	35.7599	-80.8721	127.112	40.6008	-103.516	87.1962	58.0104	-15.7434	97.9612	55.8476	20.0822	57.9191	60.0001	11.3516	
8	0.0666667	34.2684	37.414	23.894	5.83947	36.3579	17.9212	-21.3129	36.5523	0.246381	-44.4024	33.6412	-11.0815	20.8467	63.4064	-54.0992	6.41644	65.7536	-77.3626	-2.14667	67.3139	-100.643	53.3513	68.1174	-67.823	46.1358	70.7142	-101.932	42.2387	73.4981	-126.79	78.6361	58.0017	-68.2155	79.4047	58.4832	-94.2882	78.587	65.0266	-124.683	106.302	39.8962	-59.8256	111.979	36.7143	-85.0871	125.419	37.1093	-103.435	92.149	58.3332	-15.5693	101.022	55.5384	15.7155	62.375	60.1308	11.1226	
9	0.075	33.7144	39.8319	29.1668	5.14319	40.6723	17.2744	-22.6021	43.8322	1.11687	-45.4167	43.8489	-12.8463	23.6302	67.9472	-54.8094	7.47774	69.2128	-74.0165	-2.95285	72.2959	-103.374	50.4967	72.5589	-69.3003	46.7637	75.0721	-101.127	42.6023	80.0343	-126.513	79.6136	59.0606	-69.0431	78.2348	59.9227	-94.8779	76.7017	64.9558	-124.085	107.306	38.1213	-61.2224	111.222	34.1219	-86.193	118.528	34.916	-108.982	87.8725	56.1588	-12.8187	100.766	54.4018	13.9803	65.1298	62.741	11.2686	
